<?xml version="1.0" encoding="UTF-8" standalone="no"?>
<svg
   xmlns:dc="http://purl.org/dc/elements/1.1/"
   xmlns:cc="http://creativecommons.org/ns#"
   xmlns:rdf="http://www.w3.org/1999/02/22-rdf-syntax-ns#"
   xmlns:svg="http://www.w3.org/2000/svg"
   xmlns="http://www.w3.org/2000/svg"
   xmlns:sodipodi="http://sodipodi.sourceforge.net/DTD/sodipodi-0.dtd"
   xmlns:inkscape="http://www.inkscape.org/namespaces/inkscape"
   width="109.85943mm"
   height="43.506874mm"
   viewBox="0 0 109.85943 43.506874"
   version="1.1"
   id="svg8"
   inkscape:version="1.0 (4035a4fb49, 2020-05-01)"
   sodipodi:docname="bleeter.svg">
  <defs
     id="defs2">
    <rect
       x="-69.056252"
       y="17.991667"
       width="151.07709"
       height="70.379166"
       id="rect847" />
    <rect
       x="-21.695833"
       y="28.839582"
       width="23.018749"
       height="13.229167"
       id="rect841" />
    <rect
       x="-60.060417"
       y="17.197918"
       width="181.50417"
       height="67.46875"
       id="rect835" />
  </defs>
  <sodipodi:namedview
     fit-margin-bottom="0"
     fit-margin-right="0"
     fit-margin-left="0"
     fit-margin-top="0"
     inkscape:pagecheckerboard="false"
     id="base"
     pagecolor="#ffffff"
     bordercolor="#666666"
     borderopacity="1.0"
     inkscape:pageopacity="0.0"
     inkscape:pageshadow="2"
     inkscape:zoom="1"
     inkscape:cx="403.77928"
     inkscape:cy="164.88074"
     inkscape:document-units="px"
     inkscape:current-layer="layer1"
     inkscape:document-rotation="0"
     showgrid="false"
     showborder="true"
     inkscape:window-width="1920"
     inkscape:window-height="1017"
     inkscape:window-x="-8"
     inkscape:window-y="-8"
     inkscape:window-maximized="1" />
  <metadata
     id="metadata5">
    <rdf:RDF>
      <cc:Work
         rdf:about="">
        <dc:format>image/svg+xml</dc:format>
        <dc:type
           rdf:resource="http://purl.org/dc/dcmitype/StillImage" />
        <dc:title></dc:title>
      </cc:Work>
    </rdf:RDF>
  </metadata>
  <g
     transform="translate(-1.1378163,-1.339333)"
     inkscape:label="Layer 1"
     inkscape:groupmode="layer"
     id="layer1">
    <path
       id="path942"
       style="fill:#ffffff;stroke:none;stroke-width:0.264583;stroke-opacity:1"
       d="m 29.206485,1.3394525 c -0.07338,7.461e-4 -0.147076,0.00452 -0.221175,0.012404 -2.348299,0.498602 -4.861182,1.1014366 -6.805787,2.5579811 -1.482434,1.4572826 -0.672198,4.4383324 1.500685,4.6488138 -0.09174,9.9899836 0.184036,20.0119816 -0.137459,29.9836986 -2.967617,0.390761 -3.092315,5.740419 0.137459,5.623944 3.107827,-0.183761 6.326052,0.39416 9.353952,-0.341064 1.739161,-1.410279 1.127442,-4.810649 -1.197862,-5.251357 C 31.559139,26.903354 31.808776,14.985732 31.486966,3.2204759 31.304033,2.1041168 30.307231,1.3282606 29.206485,1.3394525 Z M 6.0869665,4.709789 C 4.8955743,4.7226663 3.7116168,4.7881718 2.5460981,4.969205 l -0.2537328,0.07493 -0.136943,0.040309 c -1.95652495,1.6483836 -0.9507723,5.551578 1.8133271,5.568651 -0.040547,9.187402 0.08059,18.511197 -0.060463,27.613819 -2.4082163,0.07441 -3.33917651,2.918309 -2.4174211,4.849315 1.4493795,1.964976 4.2689938,0.740593 6.3530982,1.016476 C 12.058353,43.897454 17.11294,44.61797 20.320722,41.213504 23.78358,38.218717 23.768727,33.248411 23.391335,29.067992 22.915384,26.633894 21.330202,24.303627 19.33422,23.012547 23.349836,19.484694 23.211932,13.05838 20.754289,8.6821558 19.091777,5.5466661 15.321742,4.7241109 12.055077,4.7893704 10.078926,4.8126273 8.0726194,4.688326 6.0869665,4.709789 Z M 73.008978,7.0951744 c -0.122163,3.175e-4 -0.249187,0.00967 -0.380854,0.029453 -1.001591,-0.011509 -1.989548,-0.078245 -2.92902,0.3410665 -1.639435,1.6701849 -1.144878,4.3114311 -1.753383,6.4399161 0.231725,1.5445 -1.851044,0.816078 -2.474783,1.890324 -0.382312,0.367641 -0.617463,0.830831 -0.725022,1.322916 -1.065228,-1.460137 -2.50966,-2.57715 -4.404897,-3.003433 -0.613862,-0.136411 -1.245333,-0.18623 -1.873271,-0.161748 -4.360598,0.179292 -7.272247,3.956762 -8.550899,7.857919 -0.76916,-3.388392 -2.592782,-6.647291 -6.073016,-7.661548 -0.673235,-0.185687 -1.375232,-0.261564 -2.07274,-0.237712 -4.408853,0.081 -7.50093,4.011824 -8.661487,7.9282 -1.412711,4.408397 -1.375908,9.231296 -0.502812,13.743863 0.945232,4.121187 3.64308,8.574796 8.203118,9.161714 4.237474,0.760486 8.126941,-2.93677 9.100735,-6.86108 0.05883,-0.1421 0.09849,-0.288909 0.129709,-0.437182 0.286065,0.821733 0.624655,1.625719 1.020609,2.406571 1.915176,3.99918 7.192648,6.338435 11.211719,4.002857 2.609143,-1.542679 4.675362,-4.502639 4.668448,-7.587136 -0.2663,-2.360935 -3.591239,-2.541526 -4.564062,-0.579292 -0.511392,1.204802 -1.90546,2.491203 -3.222543,1.546159 -1.689828,-1.467271 -1.850826,-3.955918 -2.06964,-6.035291 2.882668,-0.215392 5.932469,0.457647 8.714714,-0.454753 2.129843,-1.34035 1.448811,-4.297201 1.372526,-6.414076 -0.09618,-1.257917 -0.343199,-2.586842 -0.759645,-3.860232 0.280037,0.09858 0.588457,0.146873 0.923975,0.128675 0.137454,6.308762 -0.303639,12.656357 0.334862,18.940963 0.39678,2.863514 2.820249,5.325205 5.807916,5.23844 2.658555,0.08565 5.377675,-1.985264 5.987749,-4.565613 1.591526,2.576044 4.098681,4.563613 7.253303,4.589383 2.940994,0.19735 5.332709,-1.639017 6.875031,-4.004924 -0.322982,1.505686 0.302204,3.222858 2.051555,3.36672 3.165933,-0.143372 6.415567,0.290028 9.527587,-0.225309 2.42785,-1.102931 1.32015,-5.403151 -1.3255,-5.559866 0.15386,-4.592029 -0.34927,-9.102715 0.42013,-13.600721 0.20878,-0.690179 0.32007,-1.75981 1.03766,-0.778764 2.44265,1.675349 5.54526,-0.787043 5.58984,-3.448368 0.45492,-2.616268 -0.61916,-5.890503 -3.48764,-6.513298 -0.37379,-0.08812 -0.75933,-0.1255 -1.14309,-0.111104 -1.18817,-0.04472 -2.40309,0.788168 -3.16621,1.345139 -1.28169,-2.100368 -3.808882,-0.693144 -5.427577,0.116272 -1.406342,0.640529 -3.27007,1.514673 -3.923791,2.951757 -0.950532,-1.80763 -2.379547,-3.303354 -4.378545,-4.051948 -0.79321,-0.263088 -1.635054,-0.349604 -2.467549,-0.342098 -4.762934,0.02572 -7.991499,4.521475 -9.078516,8.742619 -1.096581,4.531048 -1.122188,9.410284 0.101285,13.918528 0.03612,0.13912 0.08085,0.278026 0.121958,0.417031 -0.86867,-0.321533 -1.910379,-0.206262 -2.619479,0.478522 -0.298958,-5.550431 -0.08578,-11.245738 -0.153479,-16.886308 1.686123,0.261681 4.111635,-0.222901 3.96875,-2.38125 0.341987,-1.746922 -0.532305,-4.021445 -2.645833,-3.704167 -2.272724,0.597027 -0.994371,-2.357017 -1.322917,-3.704167 0.33021,-1.6393133 -0.432496,-3.7383904 -2.264979,-3.7336196 z M 12.444719,10.778669 c 2.105938,0.406006 1.880732,3.063179 1.839679,4.685504 0.0654,1.820166 0.157517,4.714914 -2.139405,5.174877 0.07294,-3.264668 -0.02919,-6.60812 0.299726,-9.860381 z m 29.265911,9.03769 c 0.897866,1.65254 1.207267,3.699862 0.930177,5.525247 -0.684514,-0.160367 -2.305513,0.453726 -2.454629,-0.240298 0.2536,-1.800458 0.567385,-3.715573 1.524452,-5.284949 z m 45.010173,0.01706 c 1.050372,1.598015 1.068877,3.650613 0.907954,5.493721 -0.808937,-0.149785 -2.734447,0.616903 -2.31562,-0.686263 0.258435,-1.628605 0.43738,-3.467158 1.407666,-4.807458 z m -28.116112,0.08423 c 0.854028,1.609744 1.181322,3.788548 0.736388,5.449795 -0.832368,-0.159567 -2.685343,0.580435 -2.192115,-0.823722 0.201629,-1.53765 0.389194,-3.614634 1.455727,-4.626073 z m 36.367804,2.005563 c 0.245695,0.134594 0.49869,0.241207 0.738458,0.314709 0.169497,5.342694 0.215156,10.844807 0.150378,16.283244 -0.539951,0.05758 -0.992108,0.281371 -1.351341,0.608229 0.178195,-0.395687 0.336905,-0.795356 0.468707,-1.194758 0.819761,-1.910492 -1.165257,-4.347368 -3.165181,-3.277835 -1.508421,0.689178 -2.117355,3.530303 -4.139801,2.790526 -1.943184,-1.409481 -2.161838,-4.046601 -2.45928,-6.245614 3.078003,-0.186304 6.267746,0.398335 9.265583,-0.341064 1.734334,-1.603055 0.622491,-4.191979 0.778249,-6.268868 -0.01591,-0.87421 -0.11221,-1.775619 -0.285772,-2.668569 z m -82.839387,4.813141 c 2.427632,-0.03631 3.384333,2.628382 3.178101,4.667417 0.01635,2.223952 0.290481,5.201123 -1.941483,6.493142 -1.531776,0.661755 -0.981012,-1.146884 -1.071253,-2.139405 0.02625,-2.980891 -0.230407,-6.196674 -0.165365,-9.021154 z m 36.702153,4.282427 c 0.06519,1.322255 0.227762,2.636517 0.505913,3.923792 -0.564592,-0.612095 -1.394286,-0.9261 -2.32699,-0.581877 -1.740871,0.570971 -1.829644,3.530843 -4.030763,3.175516 -2.026695,-0.641654 -2.24264,-3.279894 -2.648415,-5.070491 -0.6863,-1.655339 1.009425,-1.266325 2.217433,-1.264007 2.082517,-0.142132 4.245044,0.267856 6.282822,-0.182933 z" />
    <g
       aria-label="Bleeter"
       transform="matrix(1.157297,0,0,1.8712575,81.85553,-39.371163)"
       id="text845"
       style="font-size:25.4px;line-height:1.25;font-family:'Noto Serif JP';-inkscape-font-specification:'Noto Serif JP';letter-spacing:0px;word-spacing:0px;white-space:pre;shape-inside:url(#rect847);opacity:1;fill:#0bbb19;fill-opacity:1">
      <path
         d="m -61.893841,42.528587 c -0.0762,-2.6416 -0.0762,-5.334 -0.0762,-8.3312 h 1.397 c 3.4036,0 4.953,1.3462 4.953,4.1656 0,2.7178 -1.7018,4.1656 -4.699,4.1656 z m 1.4986,-16.8656 c 2.7432,0 3.937,1.27 3.937,3.6068 0,2.5654 -1.397,3.9624 -4.318,3.9624 h -1.1938 c 0,-2.5908 0,-5.1054 0.0762,-7.5692 z m -7.5184,-0.9906 v 0.9144 l 2.413,0.2286 c 0.0508,2.5146 0.0508,5.0546 0.0508,7.5946 v 1.0922 c 0,2.667 0,5.3086 -0.0508,7.8994 l -2.413,0.2286 v 0.889 h 7.8486 c 6.1976,0 8.0772,-2.667 8.0772,-5.1816 0,-2.54 -1.7272,-4.2926 -5.9436,-4.8006 3.6576,-0.7112 4.9022,-2.4638 4.9022,-4.3942 0,-2.5908 -1.905,-4.4704 -6.4008,-4.4704 z"
         style="fill:#0bbb19;fill-opacity:1"
         id="path851" />
      <path
         d="m -45.123094,42.528587 c -0.0508,-1.6256 -0.0762,-3.3782 -0.0762,-4.9784 v -10.5664 l 0.1016,-4.0386 -0.3556,-0.2286 -5.1054,1.0922 v 0.7112 l 2.0574,0.1524 v 12.8778 c 0,1.6002 -0.0254,3.3528 -0.0762,4.953 l -1.9558,0.2286 v 0.7874 h 7.366 v -0.7874 z"
         style="fill:#0bbb19;fill-opacity:1"
         id="path853" />
      <path
         d="m -37.844407,35.721387 c 0.1524,-3.7084 1.5494,-5.2578 3.1496,-5.2578 1.5494,0 2.6416,1.3208 2.6416,3.3782 0,1.2954 -0.2794,1.8796 -1.4478,1.8796 z m 8.7884,0.9398 c 0.127,-0.4318 0.1778,-0.9144 0.1778,-1.5748 0,-3.2004 -2.1082,-5.5626 -5.588,-5.5626 -3.556,0 -6.9088,2.6162 -6.9088,7.1882 0,4.6228 2.8956,7.2136 6.8834,7.2136 2.5146,0 4.445,-1.1938 5.461,-3.2766 l -0.508,-0.3556 c -0.889,1.1938 -1.9812,1.9558 -3.81,1.9558 -2.4638,0 -4.3942,-1.7018 -4.4958,-5.588 z"
         style="fill:#0bbb19;fill-opacity:1"
         id="path855" />
      <path
         d="m -23.308859,35.721387 c 0.1524,-3.7084 1.5494,-5.2578 3.1496,-5.2578 1.549399,0 2.641599,1.3208 2.641599,3.3782 0,1.2954 -0.2794,1.8796 -1.4478,1.8796 z m 8.788399,0.9398 c 0.127,-0.4318 0.1778,-0.9144 0.1778,-1.5748 0,-3.2004 -2.1082,-5.5626 -5.587999,-5.5626 -3.556,0 -6.9088,2.6162 -6.9088,7.1882 0,4.6228 2.8956,7.2136 6.8834,7.2136 2.514599,0 4.444999,-1.1938 5.460999,-3.2766 l -0.508,-0.3556 c -0.889,1.1938 -1.9812,1.9558 -3.81,1.9558 -2.463799,0 -4.394199,-1.7018 -4.495799,-5.588 z"
         style="fill:#0bbb19;fill-opacity:1"
         id="path857" />
      <path
         d="m -4.0235142,41.639587 c -0.6858,0.508 -1.1429999,0.762 -1.8033999,0.762 -1.016,0 -1.651,-0.5842 -1.651,-2.0066 v -9.398 h 3.3781999 v -1.0668 h -3.3527999 l 0.0762,-4.0132 h -2.1844 l -1.0921999,3.9878 -2.3622,0.254 v 0.8382 h 2.1844 v 6.6548 c 0,1.016 -0.0254,1.7272 -0.0254,2.54 0,2.5908 1.2953999,3.7338 3.6321999,3.7338 1.7272,0 2.9209999,-0.6604 3.6575999,-1.8034 z"
         style="fill:#0bbb19;fill-opacity:1"
         id="path859" />
      <path
         d="m 1.0493406,35.721387 c 0.1524,-3.7084 1.5494,-5.2578 3.1496,-5.2578 1.5494,0 2.6415999,1.3208 2.6415999,3.3782 0,1.2954 -0.2794,1.8796 -1.4477999,1.8796 z m 8.7883999,0.9398 c 0.127,-0.4318 0.1777995,-0.9144 0.1777995,-1.5748 0,-3.2004 -2.1081995,-5.5626 -5.5879994,-5.5626 -3.55599997,0 -6.9087999,2.6162 -6.9087999,7.1882 0,4.6228 2.89559994,7.2136 6.8833999,7.2136 2.5145999,0 4.4449999,-1.1938 5.4609999,-3.2766 l -0.508,-0.3556 c -0.889,1.1938 -1.9812,1.9558 -3.8099999,1.9558 -2.4638,0 -4.3942,-1.7018 -4.4958,-5.588 z"
         style="fill:#0bbb19;fill-opacity:1"
         id="path861" />
      <path
         d="m 16.981886,29.777787 -0.3556,-0.2286 -4.8768,1.5494 v 0.635 l 2.0066,0.2032 c 0.0762,1.2192 0.1016,2.1336 0.1016,3.7846 v 1.8288 c 0,1.397 -0.0254,3.5052 -0.0508,4.953 l -1.8542,0.2286 v 0.7874 h 7.6454 v -0.7874 l -2.3368,-0.3048 c -0.0254,-1.4478 -0.0508,-3.5052 -0.0508,-4.8768 v -2.2606 c 0.5334,-1.778 1.2192,-2.8956 2.286,-3.7338 l 0.2794,0.3048 c 0.635,0.7366 1.1684,1.2192 2.0066,1.2192 1.1938,0 1.6764,-0.7874 1.7526,-1.9304 -0.3048,-1.1938 -1.2192,-1.6256 -2.286,-1.6256 -1.524,0 -3.2258,1.3462 -4.0386,3.7846 z"
         style="fill:#0bbb19;fill-opacity:1"
         id="path863" />
    </g>
    <text
       xml:space="preserve"
       id="text839"
       style="font-size:10.5833px;line-height:1.25;font-family:'Noto Serif JP';-inkscape-font-specification:'Noto Serif JP';letter-spacing:0px;word-spacing:0px;white-space:pre;shape-inside:url(#rect841);" />
    <path
       style="fill:none;stroke:none;stroke-width:0.264583"
       d="M 2.4685831,5.8370728 C 1.3519965,7.2134114 2.0307639,9.8549955 4.0426476,9.860602 c 1.5698813,0.145743 0.3223683,2.681568 0.7198518,3.822504 0,8.416023 0,16.832048 0,25.248071 -1.4839817,-0.02932 -3.0980723,0.968859 -2.7781249,2.635499 -0.2965503,1.896239 1.8440532,2.069967 3.1994765,1.822846 4.1014068,-0.290827 8.439721,0.382397 12.358746,-1.127799 3.32609,-1.646905 5.314449,-5.289233 5.17798,-8.964827 0.250484,-2.893642 -0.112265,-6.018331 -2.186432,-8.225853 -0.729509,-0.81179 -1.662509,-1.410865 -2.638081,-1.884641 3.387384,-2.229868 4.345413,-6.654109 3.532055,-10.422154 C 20.937756,9.5003004 18.665467,6.1724798 15.145845,5.8381073 11.143659,5.3745255 7.0550134,5.5120983 3.0581383,5.6263877 2.8616217,5.696616 2.6651024,5.7668444 2.4685831,5.8370728 Z M 11.701094,9.861118 c 2.139125,-0.1111832 3.658709,1.97785 3.367876,4.000735 -0.09225,2.431923 0.616617,5.774053 -1.882696,7.260593 -0.836527,0.309586 -2.365679,1.013254 -1.835546,-0.594797 0.01008,-3.566167 0.131246,-7.104663 0.209806,-10.681517 z m -0.189653,16.054834 c 2.562166,-0.31688 4.679249,1.969125 4.541202,4.456888 0.09918,2.836445 0.529741,6.554422 -2.317049,8.245179 -0.771054,0.04388 -2.612077,0.834286 -2.226916,-0.547773 0.01823,-4.05362 -0.108204,-8.106235 -0.290242,-12.155328 l 0.264581,0.0011 z"
       id="path935" />
  </g>
</svg>
