<?xml version="1.0" encoding="UTF-8" standalone="no"?>
<svg
   xmlns:dc="http://purl.org/dc/elements/1.1/"
   xmlns:cc="http://creativecommons.org/ns#"
   xmlns:rdf="http://www.w3.org/1999/02/22-rdf-syntax-ns#"
   xmlns:svg="http://www.w3.org/2000/svg"
   xmlns="http://www.w3.org/2000/svg"
   xmlns:sodipodi="http://sodipodi.sourceforge.net/DTD/sodipodi-0.dtd"
   xmlns:inkscape="http://www.inkscape.org/namespaces/inkscape"
   inkscape:export-ydpi="96"
   inkscape:export-xdpi="96"
   inkscape:export-filename="D:\images\svg\sheep.png"
   sodipodi:docname="sheep.svg"
   inkscape:version="1.0 (4035a4fb49, 2020-05-01)"
   id="svg93"
   version="1.1"
   viewBox="0 0 69.999995 70.000001"
   height="264.56693"
   width="264.56693">
  <defs
     id="defs87" />
  <sodipodi:namedview
     borderlayer="false"
     fit-margin-bottom="0"
     fit-margin-right="0"
     fit-margin-left="0"
     fit-margin-top="0"
     inkscape:window-maximized="1"
     inkscape:window-y="-8"
     inkscape:window-x="-8"
     inkscape:window-height="1017"
     inkscape:window-width="1920"
     inkscape:snap-nodes="false"
     inkscape:object-nodes="false"
     inkscape:pagecheckerboard="true"
     units="px"
     showgrid="true"
     inkscape:document-rotation="0"
     inkscape:current-layer="layer1"
     inkscape:document-units="mm"
     inkscape:cy="71.739819"
     inkscape:cx="336.97477"
     inkscape:zoom="1.4142136"
     inkscape:pageshadow="2"
     inkscape:pageopacity="0.0"
     borderopacity="1.0"
     bordercolor="#666666"
     pagecolor="#ffffff"
     id="base">
    <inkscape:grid
       originy="0.022697991"
       originx="0.3822035"
       id="grid99"
       type="xygrid" />
  </sodipodi:namedview>
  <metadata
     id="metadata90">
    <rdf:RDF>
      <cc:Work
         rdf:about="">
        <dc:format>image/svg+xml</dc:format>
        <dc:type
           rdf:resource="http://purl.org/dc/dcmitype/StillImage" />
        <dc:title></dc:title>
      </cc:Work>
    </rdf:RDF>
  </metadata>
  <g
     transform="translate(0.38220354,0.02269799)"
     style="display:inline"
     id="layer1"
     inkscape:groupmode="layer"
     inkscape:label="Layer 1">
    <g
       transform="matrix(0.99933083,0,0,1,-2.5576064e-4,0)"
       id="g1113">
      <path
         d="M 0.36378896,-0.02269799 H 68.96556 c 0.38731,0 0.69911,0.310927 0.69911,0.697147 V 69.280153 c 0,0.386221 -0.3118,0.697148 -0.69911,0.697148 H 0.36378896 c -0.387309,0 -0.699114,-0.310927 -0.699114,-0.697148 V 0.67444901 c 0,-0.38622 0.311805,-0.697147 0.699114,-0.697147 z"
         style="fill:#0099cb;fill-opacity:1;stroke-width:0.139233"
         id="rect1050" />
      <path
         id="path206"
         style="fill:#008000;fill-opacity:1;stroke-width:0.150116"
         d="m 33.910273,55.058928 a 40.320002,16.431711 0 0 0 -0.16691,5.16e-4 40.320002,16.431711 0 0 0 -34.12556654,7.773685 v 6.823356 c 0.273949,0.182774 0.595728,0.289904 0.942062,0.289904 H 68.959813 c 0.23273,0 0.45403,-0.04927 0.65785,-0.135909 v -5.932453 a 40.320002,16.431711 0 0 0 -35.70739,-8.819099 z" />
      <path
         d="m 27.135397,53.179559 h 0.485715 c 0.391679,0 0.707002,0.318228 0.707002,0.713516 v 8.259973 c 0,0.39529 -0.315323,0.713517 -0.707002,0.713517 h -0.485715 c -0.391679,0 -0.707002,-0.318227 -0.707002,-0.713517 v -8.259973 c 0,-0.395288 0.315323,-0.713516 0.707002,-0.713516 z"
         style="fill:#000000;stroke-width:0.14205"
         id="rect221" />
      <path
         d="m 22.93602,50.354184 h 0.685685 c 0.391679,0 0.707002,0.318228 0.707002,0.713516 v 11.186255 c 0,0.39529 -0.315323,0.713517 -0.707002,0.713517 H 22.93602 c -0.391679,0 -0.707002,-0.318227 -0.707002,-0.713517 V 51.0677 c 0,-0.395288 0.315323,-0.713516 0.707002,-0.713516 z"
         style="fill:#000000;stroke-width:0.14205"
         id="rect217" />
      <path
         d="m 42.633098,50.555996 h 0.685685 c 0.391679,0 0.707002,0.318228 0.707002,0.713515 v 11.186258 c 0,0.39529 -0.315323,0.713517 -0.707002,0.713517 h -0.685685 c -0.391679,0 -0.707002,-0.318227 -0.707002,-0.713517 V 51.269511 c 0,-0.395287 0.315323,-0.713515 0.707002,-0.713515 z"
         style="fill:#000000;stroke-width:0.14205"
         id="rect219" />
      <path
         d="m 39.033632,53.381371 h 0.485715 c 0.391679,0 0.707001,0.318228 0.707001,0.713515 v 8.259976 c 0,0.395284 -0.315322,0.713512 -0.707001,0.713512 h -0.485715 c -0.391679,0 -0.707002,-0.318228 -0.707002,-0.713512 v -8.259976 c 0,-0.395287 0.315323,-0.713515 0.707002,-0.713515 z"
         style="fill:#000000;stroke-width:0.14205"
         id="rect225" />
      <path
         id="path173"
         style="fill:#ffffff;stroke-width:0.14205"
         d="m 33.738551,22.964242 a 15.554043,16.41085 0 0 0 -7.87092,2.291054 5.0705684,4.511844 0 0 0 -0.817196,-0.05658 5.0705684,4.511844 0 0 0 -5.052577,4.522739 5.0705684,4.511844 0 0 0 0.295228,1.506186 15.554043,16.41085 0 0 0 -0.280315,0.540433 4.8206059,4.6127504 0 0 0 -2.414578,4.007949 4.8206059,4.6127504 0 0 0 0.639615,2.284642 5.0705684,4.511844 0 0 0 -0.73959,2.356831 5.0705684,4.511844 0 0 0 1.19859,2.902279 15.554043,16.41085 0 0 0 0.04419,0.182281 4.8206059,4.6127504 0 0 0 -0.242756,1.456296 4.8206059,4.6127504 0 0 0 2.713396,4.13811 4.0707167,3.5027811 0 0 0 -0.01381,0.299342 4.0707167,3.5027811 0 0 0 3.760367,3.483961 15.554043,16.41085 0 0 0 8.8552,2.905904 15.554043,16.41085 0 0 0 6.082978,-1.315545 4.0707167,3.5027811 0 0 0 1.474485,0.236354 4.0707167,3.5027811 0 0 0 4.065814,-3.502917 v -0.01644 a 4.0707167,3.5027811 0 0 0 -0.111573,-0.797967 15.554043,16.41085 0 0 0 0.863867,-1.098981 4.0707167,3.5027811 0 0 0 2.247217,-3.131663 v -0.01673 a 4.0707167,3.5027811 0 0 0 -0.129525,-0.860678 15.554043,16.41085 0 0 0 0.893694,-3.646174 5.0705684,4.511844 0 0 0 1.435546,-3.145321 v -0.02146 a 5.0705684,4.511844 0 0 0 -1.8487,-3.4625 15.554043,16.41085 0 0 0 -1.033437,-2.869949 5.0705684,4.511844 0 0 0 0.08257,-0.810509 v -0.02146 a 5.0705684,4.511844 0 0 0 -3.895416,-4.367495 15.554043,16.41085 0 0 0 -10.20154,-3.971994 15.554043,16.41085 0 0 0 -8.55e-4,0 z" />
      <path
         d="m 32.435153,34.973469 a 7.9537723,6.8491473 0 0 0 -7.925503,6.865237 7.9537723,6.8491473 0 0 0 2.763445,5.173532 5.7007721,6.8491473 0 0 1 -0.783536,-3.449271 5.7007721,6.8491473 0 0 1 5.680503,-6.865237 5.7007721,6.8491473 0 0 1 5.721042,6.816594 v 0.03255 a 5.7007721,6.8491473 0 0 1 -1.079829,4.010929 7.9537723,6.8491473 0 0 0 3.60592,-5.735189 v -0.03256 A 7.9537723,6.8491473 0 0 0 32.435153,34.97346 Z"
         style="fill:#008000;stroke-width:0.144059"
         id="path166" />
      <path
         id="path171"
         style="fill:#008000;stroke-width:0.121062"
         d="m 32.541321,35.316601 a 6.8955466,5.5792063 0 0 0 -6.871038,5.592312 6.8955466,5.5792063 0 0 0 2.395777,4.214277 4.9423012,5.5792063 0 0 1 -0.679289,-2.809722 4.9423012,5.5792063 0 0 1 4.924729,-5.592313 4.9423012,5.5792063 0 0 1 4.959877,5.552689 v 0.02652 a 4.9423012,5.5792063 0 0 1 -0.936164,3.267239 6.8955466,5.5792063 0 0 0 3.126165,-4.671794 v -0.02652 a 6.8955466,5.5792063 0 0 0 -6.920057,-5.552688 z" />
      <path
         id="rect121"
         style="fill:#000000;stroke-width:0.200889"
         d="m 28.39816,13.782054 c -1.051415,0 -1.950479,0.626627 -2.357961,1.530434 -0.100652,0.136757 -0.193734,0.287534 -0.276449,0.452916 l -3.696847,7.391571 c -0.640019,1.279672 -0.432975,2.8958 0.464246,3.623321 0.897221,0.72752 2.134688,0.282979 2.774707,-0.996692 l 0.499873,-0.999478 v 2.078949 c 0,0.168952 0.01719,0.333735 0.04723,0.493608 v 5.476229 c 0,3.952877 3.153228,7.135153 7.07002,7.135153 3.916792,0 7.070019,-3.182276 7.070019,-7.135153 V 24.82649 l 0.332236,0.671707 c 0.632761,1.279672 1.856453,1.724214 2.743499,0.996693 0.887045,-0.727522 1.091761,-2.343649 0.459,-3.623321 l -3.65487,-7.391572 C 39.733809,15.198778 39.565066,14.960672 39.378791,14.763695 38.904516,14.165104 38.17553,13.782054 37.353616,13.782054 Z" />
      <path
         id="path150"
         style="fill:#e6e6e6;stroke-width:0.14205"
         d="m 36.091501,18.491255 a 2.474507,2.4973037 0 0 0 -2.461526,2.503157 2.474507,2.4973037 0 0 0 2.477544,2.491451 2.474507,2.4973037 0 0 0 2.47147,-2.497304 v -0.01198 a 2.474507,2.4973037 0 0 0 -2.483345,-2.485319 2.474507,2.4973037 0 0 0 -0.0042,0 z m -0.0042,1.391355 a 1.1312032,1.1059488 0 0 1 0.01298,0 1.1312032,1.1059488 0 0 1 1.135346,1.100653 v 0.0053 a 1.1312032,1.1059488 0 0 1 -1.129822,1.105949 1.1312032,1.1059488 0 0 1 -1.132584,-1.10344 1.1312032,1.1059488 0 0 1 1.11408,-1.108458 z" />
      <path
         d="m 29.304283,18.491255 a 2.474507,2.4973037 0 0 0 -2.461526,2.503157 2.474507,2.4973037 0 0 0 2.477543,2.49145 2.474507,2.4973037 0 0 0 2.47147,-2.497303 v -0.01198 a 2.474507,2.4973037 0 0 0 -2.483345,-2.485319 2.474507,2.4973037 0 0 0 -0.0042,0 z m -0.0042,1.391355 a 1.1312032,1.1059488 0 0 1 0.01298,0 1.1312032,1.1059488 0 0 1 1.135346,1.100653 v 0.0053 a 1.1312032,1.1059488 0 0 1 -1.129821,1.105949 1.1312032,1.1059488 0 0 1 -1.132585,-1.10344 1.1312032,1.1059488 0 0 1 1.114081,-1.108457 z"
         style="fill:#e6e6e6;stroke-width:0.14205"
         id="path157" />
    </g>
  </g>
</svg>
